<svg width="180" height="147" viewBox="0 0 180 147" fill="none" xmlns="http://www.w3.org/2000/svg">
<path d="M74.5408 88.6853L68.5828 77.1832H67.6396V88.6853H58.438V51.8787H67.6396V63.3808H68.6449L74.5408 51.8787L86.0429 51.8787L76.158 70.282L86.0429 88.6853" fill="#694BFF"/>
<g opacity="0.25" filter="url(#filter0_f_4_52)">
<path d="M114.136 105.022V105.499H114.612H133.499H133.976V105.022V94.6282H154.873V117.958C154.873 119.546 153.589 120.852 151.979 120.852H126.868C120.365 120.852 115.088 115.575 115.088 109.072H114.612H114.136V114.534C114.136 118.021 111.305 120.852 107.818 120.852C104.331 120.852 101.5 118.021 101.5 114.534V82.1399C101.5 78.6526 104.331 75.8222 107.818 75.8222C111.305 75.8222 114.136 78.6526 114.136 82.1399V105.022Z" fill="#D67D00" stroke="black" stroke-width="0.952692"/>
<path d="M109.121 66.4604L109.123 66.4613L152.197 85.1586L152.198 85.1588C153.846 85.872 154.9 87.4676 154.9 89.2601V115.444H136.869C131.908 115.444 127.46 113.176 124.699 109.389L124.698 109.388C123.219 107.366 120.48 106.831 118.321 108.03L118.32 108.031C116.445 109.077 114.23 110.313 112.484 111.288L110.318 112.498L109.688 112.85L109.519 112.944L109.475 112.969L109.464 112.975L109.462 112.976L109.461 112.977L109.461 112.977L109.693 113.393L109.461 112.977L109.455 112.98C105.786 115.093 101.126 113.835 98.9883 110.208L98.8501 109.973H98.5779H96.0784V100.938V100.457L95.5974 100.461L91.9965 100.497L91.727 100.499L91.5905 100.732C90.4009 102.757 88.2764 103.894 86.104 103.894C85.0174 103.894 83.9328 103.616 82.9489 103.036L82.9469 103.035C79.9112 101.264 78.877 97.4244 80.6176 94.3929L94.7437 70.8131C97.798 66.0155 103.902 64.1642 109.121 66.4604ZM95.5832 93.8332L94.9071 94.62H95.9445H106.676V96.0189V96.8437L107.39 96.4314L113.546 92.8795L113.546 92.8791C113.935 92.654 114.331 92.47 114.735 92.3216L115.079 92.1953L115.045 91.8304C114.574 86.761 110.319 82.805 105.127 82.805C104.508 82.805 103.954 83.1174 103.485 83.5241C103.012 83.9347 102.576 84.4852 102.185 85.0628C101.613 85.9088 101.097 86.8783 100.693 87.6363C100.56 87.8869 100.439 88.1145 100.332 88.3068L95.5832 93.8332Z" fill="#FFC83D" stroke="black" stroke-width="0.952692"/>
</g>
<path d="M101.024 82.1399C101.024 78.3896 104.068 75.3458 107.818 75.3458C111.568 75.3458 114.612 78.3896 114.612 82.1399V105.022H133.499V94.1518H155.349V117.958C155.349 119.806 153.854 121.328 151.979 121.328H126.868C120.102 121.328 114.612 115.839 114.612 109.072V114.534C114.612 118.284 111.568 121.328 107.818 121.328C104.068 121.328 101.024 118.284 101.024 114.534V82.1399Z" fill="#D67D00"/>
<path d="M109.313 66.0244L152.387 84.7217C154.208 85.5098 155.376 87.2762 155.376 89.2601V115.92H136.869C131.76 115.92 127.167 113.583 124.314 109.67C122.982 107.849 120.509 107.36 118.552 108.447C114.802 110.539 109.693 113.393 109.693 113.393C105.796 115.637 100.847 114.3 98.5779 110.449H95.6021V100.938L92.0012 100.973C90.7239 103.147 88.4411 104.37 86.104 104.37C84.9354 104.37 83.7668 104.071 82.7069 103.446C79.4458 101.544 78.3315 97.413 80.2067 94.1518L94.3384 70.5628C97.518 65.5624 103.877 63.6328 109.313 66.0244ZM95.9445 94.1437H107.152V96.0189L113.307 92.4669C113.721 92.2278 114.142 92.0321 114.571 91.8745C114.123 87.048 110.071 83.2813 105.127 83.2813C103.307 83.2813 101.622 86.9773 100.725 88.5807L95.9445 94.1437Z" fill="#FCD53F"/>
<path d="M97.1022 113.863L87.7807 108.27C87.4057 108.993 87.1829 109.794 87.1095 110.621L86.3893 117.135L90.3815 119.352L95.5341 115.458C96.1483 115.023 96.6864 114.477 97.1022 113.863Z" fill="#FBB8AB"/>
<path d="M86.5931 115.132L86.0768 119.969C85.9953 121.029 87.191 121.709 88.0606 121.111L91.8653 118.203L86.5931 115.132Z" fill="#694BFF"/>
<path fill-rule="evenodd" clip-rule="evenodd" d="M93.267 24.6663C95.2241 24.6577 97.0344 25.7028 98.0055 27.4021L120.852 67.3775C121.81 69.0547 121.806 71.1148 120.84 72.7877L97.121 113.86L87.7159 108.428L109.053 71.4798C109.562 70.5993 109.564 69.5151 109.06 68.6323L90.1476 35.5407L50.3911 35.7154L30.305 70.5056L50.0356 105.029L70.9216 104.98C72.5 104.976 73.7827 106.252 73.7864 107.831L73.7987 112.975C73.8025 114.554 72.5259 115.837 70.9474 115.84L46.9017 115.898C44.9485 115.902 43.1433 114.858 42.1741 113.162L19.3278 73.1863C18.3694 71.5093 18.3739 69.4494 19.3397 67.7767L42.5451 27.5836C43.5109 25.9109 45.2925 24.877 47.2241 24.8685L93.267 24.6663Z" fill="#694BFF"/>
<path fill-rule="evenodd" clip-rule="evenodd" d="M66.33 105.059L70.9725 105.048C72.551 105.045 73.8336 106.321 73.8374 107.9L73.8496 113.044C73.8534 114.623 72.5769 115.905 70.9984 115.909L66.33 115.92V105.059Z" fill="#F95725"/>
<path d="M60.6295 105.006L60.6239 115.867L66.2734 115.869L66.279 105.008L60.6295 105.006Z" fill="#D3D3D3"/>
<g clip-path="url(#clip0_4_52)">
<path d="M98.9458 111.03L107.64 110.775L107.837 95.6195L101.701 99.1639C97.7292 101.469 96.3403 106.553 98.6458 110.553C98.7402 110.716 98.8402 110.875 98.9458 111.03Z" fill="#FCD53F"/>
</g>
<defs>
<filter id="filter0_f_4_52" x="55.4793" y="41.1861" width="123.714" height="103.959" filterUnits="userSpaceOnUse" color-interpolation-filters="sRGB">
<feFlood flood-opacity="0" result="BackgroundImageFix"/>
<feBlend mode="normal" in="SourceGraphic" in2="BackgroundImageFix" result="shape"/>
<feGaussianBlur stdDeviation="11.9086" result="effect1_foregroundBlur_4_52"/>
</filter>
<clipPath id="clip0_4_52">
<rect width="11.1109" height="16.6663" fill="white" transform="translate(97.53 95.62)"/>
</clipPath>
</defs>
</svg>
