<svg width="218" height="147" viewBox="0 0 218 147" fill="none" xmlns="http://www.w3.org/2000/svg">
<path d="M112.541 88.6853L106.583 77.1832H105.64V88.6853H96.438V51.8787H105.64V63.3808H106.645L112.541 51.8787L124.043 51.8787L114.158 70.282L124.043 88.6853" fill="#694BFF"/>
<g opacity="0.5" filter="url(#filter0_f_6_5)">
<path d="M152.136 105.022V105.499H152.612H171.499H171.976V105.022V94.6282H192.873V117.958C192.873 119.546 191.589 120.852 189.979 120.852H164.868C158.365 120.852 153.088 115.575 153.088 109.072H152.612H152.136V114.534C152.136 118.021 149.305 120.852 145.818 120.852C142.331 120.852 139.5 118.021 139.5 114.534V82.1399C139.5 78.6526 142.331 75.8222 145.818 75.8222C149.305 75.8222 152.136 78.6526 152.136 82.1399V105.022Z" fill="#D67D00" stroke="black" stroke-width="0.952692"/>
<path d="M147.121 66.4604L147.123 66.4613L190.197 85.1586L190.198 85.1588C191.846 85.8721 192.9 87.4676 192.9 89.2601V115.444H174.869C169.908 115.444 165.46 113.176 162.699 109.389L162.698 109.388C161.219 107.366 158.48 106.831 156.321 108.03L156.32 108.031C154.445 109.077 152.23 110.313 150.484 111.288L148.318 112.498L147.688 112.85L147.519 112.944L147.475 112.969L147.464 112.975L147.462 112.976L147.461 112.977L147.461 112.977L147.693 113.393L147.461 112.977L147.455 112.98C143.786 115.093 139.126 113.835 136.988 110.208L136.85 109.973H136.578H134.078V100.938V100.457L133.597 100.461L129.997 100.497L129.727 100.499L129.591 100.732C128.401 102.757 126.276 103.894 124.104 103.894C123.017 103.894 121.933 103.616 120.949 103.036L120.947 103.035C117.911 101.264 116.877 97.4244 118.618 94.3929L132.744 70.8131C135.798 66.0155 141.902 64.1643 147.121 66.4604ZM133.583 93.8332L132.907 94.62H133.944H144.676V96.0189V96.8437L145.39 96.4314L151.546 92.8795L151.546 92.8792C151.935 92.654 152.331 92.47 152.735 92.3216L153.079 92.1953L153.045 91.8304C152.574 86.761 148.319 82.805 143.127 82.805C142.508 82.805 141.954 83.1174 141.485 83.5242C141.012 83.9347 140.576 84.4853 140.185 85.0628C139.613 85.9088 139.097 86.8783 138.693 87.6363C138.56 87.887 138.439 88.1145 138.332 88.3068L133.583 93.8332Z" fill="#FFC83D" stroke="black" stroke-width="0.952692"/>
</g>
<path d="M139.024 82.1399C139.024 78.3896 142.068 75.3458 145.818 75.3458C149.568 75.3458 152.612 78.3896 152.612 82.1399V105.022H171.499V94.1518H193.349V117.958C193.349 119.806 191.854 121.328 189.979 121.328H164.868C158.102 121.328 152.612 115.839 152.612 109.072V114.534C152.612 118.284 149.568 121.328 145.818 121.328C142.068 121.328 139.024 118.284 139.024 114.534V82.1399Z" fill="#D67D00"/>
<path d="M147.313 66.0244L190.387 84.7217C192.208 85.5098 193.376 87.2762 193.376 89.2601V115.92H174.869C169.76 115.92 165.167 113.583 162.314 109.67C160.982 107.849 158.509 107.36 156.552 108.447C152.802 110.539 147.693 113.393 147.693 113.393C143.796 115.637 138.847 114.3 136.578 110.449H133.602V100.938L130.001 100.973C128.724 103.147 126.441 104.37 124.104 104.37C122.935 104.37 121.767 104.071 120.707 103.446C117.446 101.544 116.332 97.413 118.207 94.1519L132.338 70.5628C135.518 65.5624 141.877 63.6329 147.313 66.0244ZM133.944 94.1437H145.152V96.0189L151.307 92.4669C151.721 92.2278 152.142 92.0321 152.571 91.8745C152.123 87.048 148.071 83.2813 143.127 83.2813C141.307 83.2813 139.622 86.9773 138.725 88.5807L133.944 94.1437Z" fill="#FCD53F"/>
<path d="M135.102 113.863L125.781 108.27C125.406 108.993 125.183 109.794 125.109 110.621L124.389 117.135L128.382 119.352L133.534 115.458C134.148 115.023 134.686 114.477 135.102 113.863Z" fill="#FBB8AB"/>
<path d="M124.593 115.132L124.077 119.969C123.995 121.029 125.191 121.709 126.061 121.111L129.865 118.203L124.593 115.132Z" fill="#694BFF"/>
<path fill-rule="evenodd" clip-rule="evenodd" d="M131.267 24.6663C133.224 24.6577 135.034 25.7028 136.006 27.4021L158.852 67.3775C159.81 69.0547 159.806 71.1148 158.84 72.7877L135.121 113.86L125.716 108.428L147.053 71.4798C147.562 70.5993 147.564 69.5151 147.06 68.6323L128.148 35.5407L88.3911 35.7154L68.305 70.5056L88.0356 105.029L108.922 104.98C110.5 104.976 111.783 106.252 111.786 107.831L111.799 112.975C111.802 114.554 110.526 115.837 108.947 115.84L84.9017 115.898C82.9485 115.902 81.1433 114.858 80.1741 113.162L57.3278 73.1863C56.3694 71.5093 56.3739 69.4494 57.3397 67.7767L80.5451 27.5836C81.5109 25.9109 83.2925 24.877 85.2241 24.8685L131.267 24.6663Z" fill="#694BFF"/>
<path fill-rule="evenodd" clip-rule="evenodd" d="M104.33 105.059L108.973 105.048C110.551 105.045 111.834 106.321 111.837 107.9L111.85 113.044C111.853 114.623 110.577 115.905 108.998 115.909L104.33 115.92V105.059Z" fill="#F95725"/>
<path d="M98.6295 105.006L98.6239 115.867L104.273 115.869L104.279 105.008L98.6295 105.006Z" fill="#D3D3D3"/>
<g clip-path="url(#clip0_6_5)">
<path d="M136.946 111.03L145.64 110.775L145.837 95.6195L139.701 99.1639C135.729 101.469 134.34 106.553 136.646 110.553C136.74 110.716 136.84 110.875 136.946 111.03Z" fill="#FCD53F"/>
</g>
<defs>
<filter id="filter0_f_6_5" x="93.4793" y="41.1862" width="123.714" height="103.959" filterUnits="userSpaceOnUse" color-interpolation-filters="sRGB">
<feFlood flood-opacity="0" result="BackgroundImageFix"/>
<feBlend mode="normal" in="SourceGraphic" in2="BackgroundImageFix" result="shape"/>
<feGaussianBlur stdDeviation="11.9086" result="effect1_foregroundBlur_6_5"/>
</filter>
<clipPath id="clip0_6_5">
<rect width="11.1109" height="16.6663" fill="white" transform="translate(135.53 95.62)"/>
</clipPath>
</defs>
</svg>
