<svg width="180" height="140" viewBox="0 0 180 140" fill="none" xmlns="http://www.w3.org/2000/svg">
<path d="M74.5408 81.6853L68.5828 70.1832H67.6396V81.6853H58.438V44.8787H67.6396V56.3808H68.6449L74.5408 44.8787L86.0429 44.8787L76.158 63.282L86.0429 81.6853" fill="#694BFF"/>
<g opacity="0.5" filter="url(#filter0_f_4_348)">
<path d="M114.136 98.0223V98.4987H114.612H133.499H133.976V98.0223V87.6282H154.873V110.958C154.873 112.546 153.589 113.852 151.979 113.852H126.868C120.365 113.852 115.088 108.575 115.088 102.072H114.612H114.136V107.534C114.136 111.021 111.305 113.852 107.818 113.852C104.331 113.852 101.5 111.021 101.5 107.534V75.1399C101.5 71.6526 104.331 68.8222 107.818 68.8222C111.305 68.8222 114.136 71.6526 114.136 75.1399V98.0223Z" fill="#D67D00" stroke="black" stroke-width="0.952692"/>
<path d="M109.121 59.4604L109.123 59.4613L152.197 78.1586L152.198 78.1588C153.846 78.8721 154.9 80.4676 154.9 82.2601V108.444H136.869C131.908 108.444 127.46 106.176 124.699 102.389L124.698 102.388C123.219 100.366 120.48 99.8311 118.321 101.03L118.32 101.031C116.445 102.077 114.23 103.313 112.484 104.288L110.318 105.498L109.688 105.85L109.519 105.944L109.475 105.969L109.464 105.975L109.462 105.976L109.461 105.977L109.461 105.977L109.693 106.393L109.461 105.977L109.455 105.98C105.786 108.093 101.126 106.835 98.9883 103.208L98.8501 102.973H98.5779H96.0784V93.9378V93.4567L95.5974 93.4615L91.9965 93.4968L91.727 93.4994L91.5905 93.7318C90.4009 95.7567 88.2764 96.8938 86.104 96.8938C85.0174 96.8938 83.9328 96.6161 82.9489 96.0358L82.9469 96.0347C79.9112 94.2639 78.877 90.4244 80.6176 87.3929L94.7437 63.8131C97.798 59.0155 103.902 57.1643 109.121 59.4604ZM95.5832 86.8332L94.9071 87.62H95.9445H106.676V89.0189V89.8437L107.39 89.4314L113.546 85.8795L113.546 85.8792C113.935 85.654 114.331 85.47 114.735 85.3216L115.079 85.1953L115.045 84.8304C114.574 79.761 110.319 75.805 105.127 75.805C104.508 75.805 103.954 76.1174 103.485 76.5242C103.012 76.9347 102.576 77.4853 102.185 78.0628C101.613 78.9088 101.097 79.8783 100.693 80.6363C100.56 80.887 100.439 81.1145 100.332 81.3068L95.5832 86.8332Z" fill="#FFC83D" stroke="black" stroke-width="0.952692"/>
</g>
<path d="M101.024 75.1399C101.024 71.3896 104.068 68.3458 107.818 68.3458C111.568 68.3458 114.612 71.3896 114.612 75.1399V98.0223H133.499V87.1518H155.349V110.958C155.349 112.806 153.854 114.328 151.979 114.328H126.868C120.102 114.328 114.612 108.839 114.612 102.072V107.534C114.612 111.284 111.568 114.328 107.818 114.328C104.068 114.328 101.024 111.284 101.024 107.534V75.1399Z" fill="#D67D00"/>
<path d="M109.313 59.0244L152.387 77.7217C154.208 78.5098 155.376 80.2762 155.376 82.2601V108.92H136.869C131.76 108.92 127.167 106.583 124.314 102.67C122.982 100.849 120.509 100.36 118.552 101.447C114.802 103.539 109.693 106.393 109.693 106.393C105.796 108.637 100.847 107.3 98.5779 103.449H95.6021V93.9378L92.0012 93.9731C90.7239 96.1472 88.4411 97.3701 86.104 97.3701C84.9354 97.3701 83.7668 97.0712 82.7069 96.4461C79.4458 94.5438 78.3315 90.413 80.2067 87.1519L94.3384 63.5628C97.518 58.5624 103.877 56.6329 109.313 59.0244ZM95.9445 87.1437H107.152V89.0189L113.307 85.4669C113.721 85.2278 114.142 85.0321 114.571 84.8745C114.123 80.048 110.071 76.2813 105.127 76.2813C103.307 76.2813 101.622 79.9773 100.725 81.5807L95.9445 87.1437Z" fill="#FCD53F"/>
<path d="M97.1022 106.863L87.7807 101.27C87.4057 101.993 87.1829 102.794 87.1095 103.621L86.3893 110.135L90.3815 112.352L95.5341 108.458C96.1483 108.023 96.6864 107.477 97.1022 106.863Z" fill="#FBB8AB"/>
<path d="M86.5931 108.132L86.0768 112.969C85.9953 114.029 87.191 114.709 88.0606 114.111L91.8653 111.203L86.5931 108.132Z" fill="#694BFF"/>
<path fill-rule="evenodd" clip-rule="evenodd" d="M93.267 17.6663C95.2241 17.6577 97.0344 18.7028 98.0055 20.4021L120.852 60.3775C121.81 62.0547 121.806 64.1148 120.84 65.7877L97.121 106.86L87.7159 101.428L109.053 64.4798C109.562 63.5993 109.564 62.5151 109.06 61.6323L90.1476 28.5407L50.3911 28.7154L30.305 63.5056L50.0356 98.0294L70.9216 97.9796C72.5 97.9759 73.7827 99.2524 73.7864 100.831L73.7987 105.975C73.8025 107.554 72.5259 108.837 70.9474 108.84L46.9017 108.898C44.9485 108.902 43.1433 107.858 42.1741 106.162L19.3278 66.1863C18.3694 64.5093 18.3739 62.4494 19.3397 60.7767L42.5451 20.5836C43.5109 18.9109 45.2925 17.877 47.2241 17.8685L93.267 17.6663Z" fill="#694BFF"/>
<path fill-rule="evenodd" clip-rule="evenodd" d="M66.33 98.0593L70.9725 98.0483C72.551 98.0445 73.8336 99.3211 73.8374 100.9L73.8496 106.044C73.8534 107.623 72.5769 108.905 70.9984 108.909L66.33 108.92V98.0593Z" fill="#F95725"/>
<path d="M60.6295 98.006L60.6239 108.867L66.2734 108.869L66.279 98.0078L60.6295 98.006Z" fill="#D3D3D3"/>
<g clip-path="url(#clip0_4_348)">
<path d="M98.9458 104.03L107.64 103.775L107.837 88.6195L101.701 92.1639C97.7292 94.4694 96.3403 99.5526 98.6458 103.553C98.7402 103.716 98.8402 103.875 98.9458 104.03Z" fill="#FCD53F"/>
</g>
<defs>
<filter id="filter0_f_4_348" x="55.4793" y="34.1862" width="123.714" height="103.959" filterUnits="userSpaceOnUse" color-interpolation-filters="sRGB">
<feFlood flood-opacity="0" result="BackgroundImageFix"/>
<feBlend mode="normal" in="SourceGraphic" in2="BackgroundImageFix" result="shape"/>
<feGaussianBlur stdDeviation="11.9086" result="effect1_foregroundBlur_4_348"/>
</filter>
<clipPath id="clip0_4_348">
<rect width="11.1109" height="16.6663" fill="white" transform="translate(97.53 88.62)"/>
</clipPath>
</defs>
</svg>
